<svg xmlns="http://www.w3.org/2000/svg" viewBox="0 0 231.65 246.94"><defs><style>.cls-1{fill:#f9eb5f;}.cls-2{fill:#9d9d9c;}.cls-3{font-size:200px;font-family:Rig-BoldHalftone, Rig Solid;font-weight:700;}.cls-3,.cls-4{fill:#3c3c3b;stroke:#3c3c3b;stroke-miterlimit:10;}.cls-4{font-size:36px;stroke-width:0.25px;font-family:RiftSoft-Light, Rift Soft;font-weight:300;}.cls-5{letter-spacing:-0.01em;}</style></defs><g id="Layer_2" data-name="Layer 2"><g id="Layer_1-2" data-name="Layer 1"><polygon class="cls-1" points="11.95 38.88 11.95 161.1 37.28 161.1 37.28 121.1 57.72 121.1 78.61 161.1 108.39 161.1 83.94 115.32 95.5 107.32 103.06 99.99 108.39 89.54 108.39 79.32 108.39 69.99 104.83 60.21 98.38 52.65 92.83 46.43 82.17 41.1 71.5 38.88 11.95 38.88"/><polyline class="cls-2" points="56.83 81.1 56.83 97.54 63.95 99.99 71.06 95.77 75.94 90.54 79.5 84.21 79.5 78.88 56.83 78.88"/><polyline class="cls-1" points="114.92 38.88 114.92 62.88 147.92 62.88 147.92 161.1 174.15 161.1 174.15 62.88 208.3 62.88 208.3 38.88 116.81 38.88"/><polyline class="cls-2" points="38.61 62.88 38.61 97.99 56.83 97.54 56.83 78.88 56.83 62.88 66.17 62.88 66.17 78.88"/><polygon class="cls-2" points="38.61 62.88 66.17 62.88 66.17 78.88 43.95 78.88 38.61 78.88 38.61 62.88"/><text class="cls-3" transform="translate(0.5 163.56)">R</text><text class="cls-3" transform="translate(110.97 163.56)">T</text><text class="cls-4" transform="translate(6.87 217.76)">Web Developmen<tspan class="cls-5" x="212.11" y="0">t</tspan></text></g></g></svg>